<?xml version="1.0" standalone="no"?>
<!DOCTYPE svg PUBLIC "-//W3C//DTD SVG 20010904//EN"
 "http://www.w3.org/TR/2001/REC-SVG-20010904/DTD/svg10.dtd">
<svg version="1.0" xmlns="http://www.w3.org/2000/svg"
 width="596.000000pt" height="640.000000pt" viewBox="0 0 596.000000 640.000000"
 preserveAspectRatio="xMidYMid meet">

<g transform="translate(0.000000,640.000000) scale(0.100000,-0.100000)"
fill="#000000" stroke="none">
<path d="M2420 5746 c0 -29 -45 -68 -85 -75 -34 -5 -40 -10 -46 -38 -3 -18
-20 -44 -38 -58 -26 -23 -31 -34 -31 -71 0 -35 8 -56 40 -103 22 -32 47 -64
55 -71 22 -18 19 -36 -20 -99 -31 -50 -34 -60 -25 -90 5 -19 16 -42 25 -51 14
-15 14 -21 2 -51 -8 -19 -19 -47 -24 -64 -7 -26 -14 -31 -58 -38 -28 -5 -64
-15 -82 -24 -29 -14 -31 -19 -31 -67 1 -50 -16 -124 -51 -216 -15 -40 -20 -45
-52 -48 -31 -3 -37 1 -51 31 -14 30 -24 36 -70 47 -83 20 -113 35 -163 84 -42
42 -51 46 -94 46 -42 0 -51 -4 -67 -27 -10 -16 -31 -41 -47 -57 -35 -36 -49
-69 -51 -121 -1 -36 -4 -40 -31 -45 -33 -6 -44 -32 -24 -56 7 -9 14 -36 15
-60 1 -39 -2 -47 -22 -54 -33 -13 -30 -28 11 -47 23 -11 42 -31 56 -60 24 -50
59 -72 130 -80 58 -7 70 -18 35 -35 -19 -8 -26 -19 -26 -40 0 -38 -16 -68 -36
-68 -12 0 -15 -6 -10 -24 8 -34 -22 -114 -51 -133 -13 -9 -29 -25 -35 -36 -11
-21 -2 -21 45 -2 12 5 17 2 17 -9 0 -9 -4 -16 -9 -16 -5 0 -13 -9 -16 -20 -3
-11 -13 -20 -21 -20 -8 0 -14 -10 -14 -25 0 -27 9 -32 28 -13 7 7 4 -11 -7
-42 -10 -30 -48 -138 -84 -240 -65 -187 -140 -374 -157 -395 -5 -6 -9 -20 -9
-30 -1 -78 -14 -131 -39 -152 -23 -19 -25 -26 -16 -50 6 -18 26 -37 56 -53 60
-33 82 -54 113 -106 30 -51 31 -61 8 -87 -17 -19 -17 -20 5 -8 45 24 22 121
-47 196 -51 55 -68 123 -51 198 7 28 50 158 97 287 181 503 284 783 298 810 8
15 30 38 50 50 40 25 45 40 13 41 -13 0 -63 15 -113 33 -87 31 -91 34 -115 81
-29 59 -38 147 -20 211 23 79 139 184 205 184 10 0 66 -17 123 -37 85 -30 108
-42 121 -65 14 -24 22 -28 62 -28 26 0 51 6 57 13 6 7 37 80 70 162 61 157 64
161 137 182 25 7 33 19 57 83 32 87 34 107 11 132 -16 18 -15 23 5 93 12 41
22 80 22 86 0 6 -14 27 -31 47 -29 32 -31 40 -25 86 8 72 50 152 96 182 37 25
115 42 159 36 13 -2 54 -34 91 -73 86 -87 113 -99 235 -99 69 0 111 -5 152
-20 30 -11 144 -78 252 -149 374 -246 544 -351 624 -383 179 -73 260 -113 267
-133 8 -21 -54 -203 -76 -225 -6 -6 -66 -17 -134 -25 -68 -8 -130 -20 -137
-27 -14 -14 -183 -442 -183 -464 0 -13 89 -59 97 -50 3 2 -5 7 -17 11 -18 6
-20 12 -14 38 8 40 4 37 61 47 26 4 39 8 27 9 -11 0 -28 7 -39 14 -22 17 -11
26 50 43 l40 11 -42 7 c-24 4 -43 10 -43 12 0 4 101 276 105 281 1 1 33 6 73
9 70 7 72 6 81 -18 11 -30 66 -78 90 -78 35 0 97 86 86 120 -3 11 -1 30 6 42
16 33 107 118 124 118 29 0 14 29 -20 40 -30 10 -40 22 -64 75 -16 34 -34 65
-40 69 -6 4 -11 20 -11 37 0 34 -2 35 -36 13 -37 -25 -120 -13 -153 22 -30 33
-104 66 -136 62 -26 -3 -68 23 -500 308 -143 94 -279 181 -302 193 -29 14 -77
24 -159 31 -112 11 -120 13 -176 51 -36 25 -65 54 -77 78 -23 44 -62 64 -118
59 -35 -3 -39 0 -52 30 -11 23 -21 32 -38 32 -13 0 -23 -6 -23 -14z"/>
<path d="M2515 5587 c5 -18 0 -28 -19 -40 -14 -10 -33 -32 -42 -50 -9 -17 -21
-35 -27 -39 -13 -8 -39 1 -54 19 -9 12 -13 8 -23 -21 -17 -54 -5 -94 36 -113
38 -19 39 -22 22 -70 -14 -37 -8 -48 21 -38 22 7 29 39 11 50 -16 10 -12 36
13 89 18 40 25 46 34 35 9 -11 7 -24 -8 -59 -11 -24 -18 -55 -15 -69 3 -15 -5
-53 -18 -86 l-23 -60 -21 34 -21 35 -9 -25 c-9 -23 -4 -48 18 -89 7 -14 0 -45
-31 -127 -22 -59 -46 -111 -52 -115 -7 -4 -24 -8 -38 -8 -44 0 -64 -29 -114
-165 -66 -179 -63 -175 -135 -175 -53 0 -61 -3 -76 -25 -13 -20 -20 -23 -30
-14 -8 6 -11 15 -9 20 3 4 -1 23 -9 42 -12 30 -24 38 -96 66 -89 34 -142 41
-71 10 l44 -20 -32 -33 c-21 -21 -43 -63 -60 -109 l-26 -75 -55 23 -55 24 1
48 1 48 -15 -35 c-20 -49 -19 -142 1 -173 17 -27 156 -87 200 -87 13 0 41 11
61 25 64 44 67 35 20 -71 -15 -35 -33 -58 -53 -68 -40 -21 -65 -60 -86 -131
-40 -142 -167 -502 -205 -581 -11 -23 -20 -49 -20 -58 0 -9 -15 -54 -34 -99
-18 -45 -39 -100 -46 -122 -7 -22 -24 -62 -38 -89 -47 -89 -31 -167 53 -256
26 -29 45 -60 49 -83 10 -51 -9 -113 -41 -134 -14 -10 -36 -28 -50 -41 l-24
-22 3 -249 c2 -137 6 -252 9 -256 10 -9 79 68 224 249 129 160 160 215 195
345 10 39 13 41 50 41 76 0 143 21 177 55 30 30 33 39 33 90 0 48 4 62 32 96
28 35 32 47 31 95 -1 43 2 56 17 64 30 16 58 72 66 130 3 30 14 64 24 75 29
34 40 62 40 107 0 31 9 55 30 87 23 33 30 55 30 91 0 37 6 55 30 85 24 30 30
48 30 85 0 37 5 51 26 71 40 37 56 82 48 139 l-7 50 53 0 c45 0 115 -24 449
-156 218 -85 398 -157 400 -160 3 -2 0 -9 -5 -14 -6 -6 -146 42 -384 130 -206
77 -383 140 -395 140 -36 0 -45 -15 -84 -126 -21 -60 -116 -316 -211 -569 -94
-253 -179 -480 -188 -505 -21 -54 -54 -74 -171 -98 l-79 -16 -12 -54 c-16 -71
-61 -154 -119 -222 -26 -30 -121 -143 -210 -250 -185 -221 -180 -215 -183
-209 -2 2 -1 162 2 355 4 279 2 350 -7 347 -10 -4 -13 -63 -13 -247 0 -132 -5
-294 -11 -360 -5 -65 -8 -121 -5 -123 6 -6 147 94 158 111 4 6 33 43 64 82
l58 70 53 -110 c60 -126 65 -158 27 -182 -23 -16 -34 -16 -105 -4 -44 7 -82
10 -86 7 -14 -15 11 -38 77 -73 118 -62 126 -100 34 -161 -46 -30 -54 -41 -52
-62 3 -24 8 -27 57 -31 51 -6 81 -25 81 -55 0 -15 -26 -52 -72 -102 -37 -42
-47 -63 -29 -63 5 0 33 26 62 57 93 103 139 123 139 62 0 -15 -21 -86 -46
-156 -26 -70 -49 -141 -51 -158 -9 -52 20 -10 57 84 55 139 144 211 184 149 9
-15 16 -66 19 -145 6 -122 17 -168 40 -160 7 2 15 32 20 68 22 194 26 213 44
238 37 48 67 41 140 -35 48 -50 67 -64 76 -55 8 8 8 22 -1 56 -16 59 -15 62 8
85 31 31 69 25 128 -20 29 -22 57 -40 62 -40 22 0 8 32 -35 80 -55 61 -75 99
-75 140 0 40 41 65 134 81 201 33 227 54 79 63 -223 14 -274 51 -208 148 28
42 31 58 11 58 -23 0 -66 41 -66 63 0 29 28 74 112 180 39 48 68 91 64 94 -3
4 -52 -39 -109 -94 -126 -124 -141 -132 -172 -103 -13 12 -28 42 -34 67 -14
53 -29 52 -48 -2 -17 -50 -40 -75 -70 -75 -33 0 -66 36 -107 118 -58 115 -70
109 -49 -24 16 -103 9 -139 -32 -154 -49 -19 -104 20 -192 133 l-45 58 19 22
c192 213 220 254 239 360 9 53 23 63 96 71 35 4 81 16 103 26 l40 19 239 616
c209 538 256 648 256 605 0 -6 27 -10 60 -10 l61 0 -7 -37 c-6 -32 -5 -35 11
-30 12 5 18 1 22 -13 7 -27 30 -32 88 -17 l50 14 240 -89 240 -89 190 46 190
46 87 160 86 160 -39 19 c-26 14 -37 16 -33 7 5 -14 -118 -259 -139 -274 -11
-9 -245 -73 -263 -73 -19 1 36 26 131 60 l100 35 56 110 c31 60 55 114 52 121
-2 6 -26 22 -54 34 -27 13 -54 29 -60 36 -7 9 19 88 92 276 56 145 106 268
111 274 4 6 59 17 121 24 61 7 119 16 128 21 19 10 73 134 66 153 -3 7 -76 43
-162 80 -86 37 -200 94 -253 127 -490 309 -722 449 -743 449 -18 0 -2 -13 59
-51 46 -28 81 -53 79 -55 -2 -2 -61 21 -132 52 -70 31 -155 63 -188 70 -81 19
-163 67 -183 107 -23 46 -44 67 -66 67 -14 0 -17 -5 -13 -23z m95 -93 c44 -25
80 -48 80 -51 0 -2 -34 -2 -75 2 -55 5 -79 4 -90 -5 -20 -17 -65 5 -65 30 0
23 38 70 56 70 8 0 51 -21 94 -46z m206 -247 c318 -202 374 -240 371 -251 -2
-5 -22 -23 -46 -40 l-42 -30 -52 29 c-87 48 -541 326 -555 339 -10 10 -8 23
14 70 16 35 31 55 38 53 7 -3 129 -79 272 -170z m-26 163 c8 -5 11 -10 5 -10
-5 0 -17 5 -25 10 -8 5 -10 10 -5 10 6 0 17 -5 25 -10z m60 -25 c14 -8 21 -14
15 -14 -5 0 -21 6 -35 14 -14 8 -20 14 -15 14 6 0 21 -6 35 -14z m225 -127
c200 -84 281 -125 400 -198 83 -51 157 -100 165 -107 13 -13 -8 -14 -154 -7
l-169 7 -316 200 c-174 110 -320 204 -326 209 -6 6 18 8 70 6 75 -4 95 -11
330 -110z m-155 97 c14 -8 21 -14 15 -14 -5 0 -21 6 -35 14 -14 8 -20 14 -15
14 6 0 21 -6 35 -14z m60 -25 c8 -5 11 -10 5 -10 -5 0 -17 5 -25 10 -8 5 -10
10 -5 10 6 0 17 -5 25 -10z m60 -25 c14 -8 21 -14 15 -14 -5 0 -21 6 -35 14
-14 8 -20 14 -15 14 6 0 21 -6 35 -14z m70 -30 c14 -8 21 -14 15 -14 -5 0 -21
6 -35 14 -14 8 -20 14 -15 14 6 0 21 -6 35 -14z m-590 -35 c0 -10 -35 -112
-79 -227 -66 -173 -82 -209 -100 -211 -15 -2 -21 2 -21 14 0 10 39 116 86 235
64 162 89 216 100 212 8 -3 14 -13 14 -23z m650 10 c8 -5 11 -10 5 -10 -5 0
-17 5 -25 10 -8 5 -10 10 -5 10 6 0 17 -5 25 -10z m-574 -46 c24 -14 44 -28
44 -29 0 -8 -93 -45 -110 -45 -17 0 -17 3 -2 50 9 28 18 50 20 50 2 0 23 -12
48 -26z m694 -4 c8 -5 11 -10 5 -10 -5 0 -17 5 -25 10 -8 5 -10 10 -5 10 6 0
17 -5 25 -10z m-532 -95 c28 -19 32 -25 17 -25 -22 0 -88 49 -67 50 7 0 30
-11 50 -25z m-148 -12 c0 -5 -27 -76 -60 -159 l-61 -151 -30 28 -30 28 48 117
c45 108 50 118 83 129 44 16 50 17 50 8z m295 -79 c49 -32 61 -44 42 -39 -25
5 -137 72 -137 81 0 13 34 -2 95 -42z m-125 -68 c78 -40 193 -76 244 -76 38 0
45 -10 22 -33 -18 -18 -120 -7 -202 23 -89 32 -105 33 -46 4 29 -14 94 -36
145 -49 88 -23 89 -24 32 -18 -52 5 -159 33 -219 58 -13 6 -17 5 -12 -3 9 -15
106 -50 201 -73 l80 -19 -65 6 c-56 5 -146 30 -215 59 -17 8 -18 7 -7 -7 14
-18 152 -65 227 -77 28 -5 39 -9 25 -10 -47 -2 -155 20 -215 44 -32 13 -61 22
-64 20 -12 -12 169 -74 259 -89 14 -2 -6 -1 -45 1 -38 3 -95 13 -125 24 -89
32 -94 33 -86 21 9 -15 158 -62 226 -72 l55 -7 -56 -2 c-56 -1 -165 26 -221
55 -16 8 -28 10 -28 5 0 -19 169 -76 250 -84 20 -2 9 -4 -25 -5 -43 -1 -83 6
-145 28 -92 32 -120 32 -46 0 57 -24 155 -50 189 -50 14 0 29 -5 32 -10 15
-25 -164 13 -257 54 -10 5 -18 4 -18 0 0 -14 99 -51 188 -70 45 -9 80 -19 78
-21 -10 -10 -162 19 -216 41 -33 14 -60 21 -60 16 0 -15 140 -61 250 -84 14
-2 -6 -2 -45 1 -59 4 -126 23 -207 58 -11 4 -18 3 -18 -3 0 -15 175 -74 255
-86 17 -3 -1 -3 -40 -1 -43 2 -99 14 -143 30 -84 30 -107 28 -35 -3 56 -24
118 -41 188 -53 47 -8 46 -8 -20 -5 -42 2 -99 14 -144 29 -41 15 -77 24 -79
22 -7 -7 75 -40 136 -55 56 -15 73 -36 20 -25 -30 7 -107 32 -150 50 -10 4
-18 3 -18 -2 0 -11 128 -56 220 -77 l65 -14 -65 5 c-36 3 -102 17 -147 32 -46
15 -83 24 -83 20 0 -11 101 -47 194 -69 l81 -19 -60 5 c-67 6 -156 29 -197 50
-16 8 -28 10 -28 4 0 -17 137 -63 250 -84 14 -3 -6 -2 -45 0 -38 3 -103 17
-143 31 -41 13 -76 23 -78 20 -11 -11 169 -69 251 -81 17 -3 -2 -3 -41 -1 -39
2 -97 13 -130 25 -88 31 -101 34 -89 22 15 -16 158 -62 223 -71 l57 -9 -60 -1
c-42 0 -86 8 -145 28 -47 16 -87 28 -88 26 -15 -15 182 -75 245 -75 33 0 41
-12 24 -38 -6 -11 -24 -11 -90 -2 -94 13 -139 27 -223 72 -64 34 -108 81 -108
116 0 28 3 28 37 -4 35 -32 63 -48 63 -35 0 5 -6 11 -14 14 -7 3 -24 20 -37
39 l-24 33 43 -34 c24 -18 45 -31 48 -28 3 3 -6 13 -21 23 -14 9 -30 26 -36
36 -9 17 -8 18 10 9 11 -6 23 -16 26 -21 3 -6 11 -10 17 -10 7 0 -1 14 -17 30
-32 33 -28 39 11 14 13 -9 27 -14 30 -11 3 3 -3 10 -14 16 -10 6 -27 23 -37
38 l-19 28 38 -29 c46 -35 57 -29 15 8 -37 33 -31 47 7 17 15 -12 30 -19 33
-15 3 3 -2 10 -11 15 -9 5 -27 24 -40 42 l-23 32 43 -33 c23 -19 42 -29 42
-23 0 6 -9 16 -20 23 -11 7 -20 19 -20 27 0 11 4 11 18 -2 33 -30 35 -18 3 18
-40 45 -40 54 0 21 17 -14 36 -26 42 -26 7 0 0 10 -16 21 -15 12 -32 31 -39
42 -10 20 -7 19 25 -6 46 -35 58 -35 26 1 -47 51 -54 67 -15 34 21 -18 41 -31
44 -27 3 3 -4 12 -16 21 -12 8 -27 25 -34 37 -10 20 -8 19 25 -6 20 -15 37
-24 37 -18 0 5 -8 16 -17 23 -10 7 -25 22 -33 32 -14 18 -14 19 7 8 12 -7 25
-17 28 -22 3 -6 11 -10 17 -10 5 0 -4 16 -21 35 -40 45 -40 54 0 21 43 -36 58
-33 19 4 -18 17 -30 33 -26 37 3 4 17 -4 31 -17 14 -13 27 -21 30 -18 3 2 -6
15 -20 28 -33 31 -32 47 2 21 14 -12 28 -19 31 -16 3 3 -4 12 -16 21 -26 18
-53 61 -30 49 7 -5 23 -17 36 -28 12 -11 22 -15 22 -9 0 6 -8 17 -18 24 -11 7
-25 24 -32 38 l-13 25 30 -27 c42 -40 51 -35 14 7 -51 58 -40 104 13 54 17
-17 60 -45 96 -63z m497 9 l36 -15 -7 -50 c-9 -64 -16 -82 -31 -77 -30 12
-126 79 -123 87 3 8 78 69 86 70 1 0 19 -7 39 -15z m-207 -42 l35 -23 -58 0
c-44 0 -62 5 -77 20 -11 11 -20 25 -20 30 0 17 82 -1 120 -27z m828 -63 l122
-55 -42 -6 c-24 -4 -88 -10 -143 -13 l-100 -7 -165 66 c-91 37 -167 69 -170
72 -2 2 81 3 185 1 l190 -3 123 -55z m-457 24 c35 -14 69 -29 74 -34 6 -4 31
-15 57 -25 l47 -18 -48 -38 -48 -38 -106 37 c-59 20 -107 40 -107 43 0 20 43
99 54 99 7 0 41 -12 77 -26z m-261 -76 c0 -21 -185 -528 -192 -528 -16 0 -7
31 84 282 83 229 108 287 108 246z m-904 -28 c32 -16 67 -30 76 -30 9 0 19 -3
21 -7 3 -5 -18 -69 -47 -143 -49 -129 -52 -135 -81 -138 -43 -4 -119 37 -123
66 -3 18 85 282 93 282 1 0 29 -13 61 -30z m1122 -92 c35 -16 106 -39 158 -51
90 -21 94 -23 81 -41 -13 -18 -19 -18 -92 -7 -43 6 -105 22 -138 36 -34 13
-63 22 -66 20 -11 -12 155 -69 259 -89 14 -3 -5 -3 -41 0 -68 4 -123 18 -194
49 -34 15 -37 15 -26 1 16 -19 156 -66 226 -76 l50 -7 -54 -2 c-36 -1 -82 9
-143 29 -99 33 -115 36 -78 15 38 -22 148 -56 210 -65 l55 -7 -60 -2 c-43 0
-84 8 -145 29 -46 16 -86 27 -89 25 -6 -7 81 -42 150 -60 125 -32 126 -33 64
-28 -52 5 -147 31 -207 57 -10 5 -18 4 -18 0 0 -14 99 -51 188 -70 45 -9 80
-19 78 -21 -10 -10 -162 19 -216 41 -33 14 -60 21 -60 16 0 -14 158 -67 250
-84 14 -3 -6 -2 -45 1 -38 3 -100 16 -138 30 -38 13 -71 22 -74 19 -12 -12
181 -75 238 -77 24 -1 27 -3 11 -6 -37 -7 -145 13 -211 40 -34 14 -61 21 -61
17 0 -17 165 -73 245 -84 17 -2 -1 -2 -40 -1 -45 2 -95 12 -139 29 -73 28
-106 28 -40 0 56 -23 131 -45 189 -55 47 -7 45 -8 -20 -5 -40 2 -96 13 -130
26 -87 32 -108 34 -49 5 28 -14 82 -32 120 -41 110 -26 125 -32 59 -27 -33 3
-97 18 -142 33 -46 15 -83 24 -83 20 0 -10 103 -50 148 -57 33 -6 45 -23 15
-23 -16 0 -117 34 -168 55 -17 8 -18 7 -7 -7 14 -17 113 -51 212 -72 36 -8 54
-15 40 -15 -49 -2 -153 20 -211 44 -33 13 -59 20 -59 15 0 -16 168 -71 255
-84 17 -3 -3 -3 -43 0 -39 2 -98 13 -130 24 -91 33 -96 34 -88 22 9 -15 156
-62 226 -73 52 -8 51 -8 -20 -4 -47 2 -101 13 -145 29 -73 26 -97 28 -48 3 39
-21 137 -48 203 -58 49 -7 46 -8 -25 -4 -55 2 -101 11 -149 29 -38 15 -71 24
-74 21 -8 -8 86 -44 157 -61 120 -28 131 -32 61 -27 -55 5 -120 22 -215 57
-20 8 -20 7 0 -8 10 -9 51 -26 90 -38 75 -24 102 -38 69 -38 -22 0 -137 36
-166 51 -11 6 -18 6 -18 0 0 -18 196 -81 252 -81 29 0 33 -6 19 -29 -7 -10
-24 -12 -73 -7 -137 13 -287 86 -324 157 -21 42 -11 47 30 15 49 -37 54 -32
12 14 -20 22 -36 43 -36 48 0 4 6 0 13 -9 18 -24 67 -53 67 -40 0 6 -4 11 -9
11 -5 0 -20 15 -33 33 l-22 32 37 -28 c20 -15 37 -24 37 -18 0 5 -8 16 -18 23
-37 26 -35 42 1 19 20 -12 37 -18 37 -13 0 5 -6 12 -14 15 -7 3 -24 20 -37 39
l-24 33 43 -33 c23 -19 42 -29 42 -23 0 5 -8 16 -17 23 -10 7 -25 22 -33 32
-14 18 -14 19 7 8 12 -7 25 -17 28 -22 3 -6 11 -10 17 -10 5 0 -4 16 -21 35
-41 47 -39 52 4 19 20 -15 38 -24 41 -21 3 3 -3 10 -14 16 -10 6 -27 23 -37
38 l-19 28 37 -27 c49 -38 58 -35 17 7 -37 38 -33 47 7 15 15 -11 28 -18 31
-15 3 3 -4 12 -16 21 -12 8 -27 25 -34 37 -10 20 -8 19 25 -6 20 -15 37 -24
37 -18 0 5 -8 16 -17 23 -10 7 -25 22 -33 32 -14 18 -14 19 7 8 12 -7 25 -17
28 -22 3 -6 11 -10 17 -10 6 0 2 10 -10 23 -29 31 -28 41 3 21 15 -10 25 -12
25 -5 0 6 -4 11 -9 11 -5 0 -20 15 -33 33 l-22 32 36 -27 c51 -39 56 -35 14
12 -46 51 -46 61 0 20 20 -17 39 -28 42 -25 4 4 0 11 -9 16 -9 4 -25 21 -35
36 l-18 28 37 -28 c44 -34 49 -23 7 16 -16 16 -30 33 -30 38 0 6 12 -2 27 -16
34 -31 54 -33 27 -2 -46 51 -49 61 -11 33 20 -16 37 -24 37 -18 0 5 -6 12 -14
15 -8 3 -20 16 -26 28 -13 24 -2 21 33 -9 27 -24 19 0 -13 38 -17 19 -30 45
-30 57 0 22 3 21 53 -18 28 -23 81 -55 115 -71z m330 78 c6 -7 -18 -95 -29
-101 -8 -6 -86 22 -107 38 -10 8 -4 19 30 47 37 32 46 36 72 29 16 -5 31 -11
34 -13z m312 -35 c-11 -23 -26 -41 -33 -41 -6 0 -70 -7 -142 -15 -71 -8 -133
-15 -137 -15 -11 0 23 91 36 96 23 8 291 29 294 22 2 -3 -6 -25 -18 -47z
m-500 -33 c58 -22 107 -42 110 -45 3 -3 -22 -3 -55 0 -57 5 -89 19 -182 85
-17 12 -17 13 2 6 11 -3 67 -24 125 -46z m-1370 -231 c38 -19 71 -27 108 -27
48 0 54 3 70 30 24 42 37 32 37 -27 0 -57 13 -77 81 -124 44 -30 141 -71 213
-89 69 -18 185 -16 215 4 31 20 55 20 83 1 18 -13 21 -20 13 -40 -13 -34 1
-65 46 -104 127 -112 407 -169 481 -99 l28 26 55 -28 c36 -18 50 -30 40 -34
-44 -16 -197 -56 -213 -56 -10 0 -336 134 -725 298 -677 285 -705 297 -662
302 49 6 51 6 130 -33z m-320 2 c30 -11 58 -23 62 -25 9 -6 -10 -62 -24 -70
-6 -4 -41 4 -79 17 -72 25 -81 37 -59 80 14 24 32 24 100 -2z m1028 -6 c-10
-2 -28 -2 -40 0 -13 2 -5 4 17 4 22 1 32 -1 23 -4z m-703 -62 c66 -28 129 -55
140 -60 11 -5 63 -26 115 -47 52 -21 140 -57 195 -82 55 -24 159 -67 230 -96
125 -51 547 -227 553 -231 6 -5 -74 -178 -84 -182 -9 -3 -564 211 -649 251
-70 34 -365 146 -382 146 -6 0 -14 -13 -18 -29 -11 -49 -24 -52 -90 -24 -33
14 -72 27 -88 30 -15 3 -30 9 -33 14 -3 5 -16 9 -29 9 -25 0 -101 26 -121 42
-8 6 3 47 40 141 63 158 74 180 89 174 7 -3 66 -28 132 -56z m1324 -167 c9 -8
-45 -2 -64 6 -14 7 -8 8 20 3 22 -3 42 -7 44 -9z m-1566 -113 c13 -5 27 -21
31 -34 8 -32 58 -63 127 -78 51 -12 99 -41 99 -62 0 -15 -109 -1 -170 22 -77
29 -148 76 -162 107 -11 23 -10 28 7 40 22 16 35 17 68 5z m-99 -35 c17 -67
175 -152 306 -163 71 -6 90 -19 90 -64 0 -41 -17 -48 -90 -38 -185 26 -400
151 -400 234 0 49 82 76 94 31z m223 -13 c36 -17 59 -40 50 -50 -11 -11 -93
27 -118 54 l-24 26 30 -7 c17 -4 44 -14 62 -23z m333 -26 l55 -22 -79 -3 c-43
-2 -80 -1 -83 1 -2 2 1 17 7 32 8 20 15 25 28 20 9 -4 42 -17 72 -28z m1039
-3 c10 -9 -56 -3 -69 7 -11 7 -4 8 25 3 22 -4 42 -8 44 -10z m-1687 -98 c-17
-19 -16 -19 9 -2 24 15 27 15 44 -4 48 -53 202 -118 333 -140 81 -13 98 -30
88 -85 -11 -55 -41 -85 -87 -85 -118 0 -337 87 -411 163 -36 37 -38 43 -38
101 0 33 5 78 11 100 l11 38 28 -33 c27 -32 27 -35 12 -53z m1871 -88 l-38
-73 -104 -37 c-58 -21 -106 -36 -109 -34 -6 6 64 152 77 161 16 9 205 63 209
59 2 -1 -13 -35 -35 -76z m-1907 -83 c91 -84 286 -165 395 -165 33 0 40 -4 45
-25 10 -39 -5 -95 -32 -122 -22 -22 -30 -24 -77 -18 -98 12 -172 35 -265 81
-148 74 -181 134 -138 247 10 26 19 47 20 47 1 0 25 -20 52 -45z m-60 -191
c84 -78 213 -135 359 -157 l80 -12 3 -45 c2 -31 -4 -55 -18 -77 -19 -31 -23
-33 -78 -33 -152 0 -377 99 -424 187 -22 41 -20 88 9 148 9 19 17 35 18 35 1
0 24 -21 51 -46z m-67 -184 c24 -23 61 -53 84 -67 60 -38 190 -83 260 -90 100
-10 107 -14 107 -73 0 -67 -30 -100 -90 -100 -56 0 -181 27 -238 51 -191 81
-244 162 -187 283 10 20 18 36 20 36 1 0 21 -18 44 -40z m50 -269 c90 -46 167
-70 258 -79 62 -7 67 -9 74 -35 8 -31 -4 -82 -27 -112 -13 -17 -26 -20 -82
-19 -37 1 -96 9 -132 18 -95 24 -241 98 -280 142 -28 33 -31 42 -26 77 4 22
16 62 28 88 l20 49 45 -45 c25 -24 80 -62 122 -84z m-146 -145 c85 -62 206
-105 347 -124 54 -7 55 -8 58 -41 5 -45 -3 -72 -28 -99 -42 -45 -211 -20 -365
54 -67 33 -85 47 -113 89 -29 43 -33 56 -30 97 3 26 13 59 22 73 l18 27 26
-24 c15 -13 44 -37 65 -52z m93 -465 c-12 -65 -31 -111 -97 -238 -45 -87 -88
-167 -96 -178 -11 -16 -13 12 -13 188 l0 207 39 25 c56 37 75 80 68 147 l-5
54 60 -62 60 -62 -16 -81z"/>
<path d="M1785 2320 c4 -6 11 -8 16 -5 14 9 11 15 -7 15 -8 0 -12 -5 -9 -10z"/>
<path d="M1844 2279 c-8 -14 11 -33 25 -25 11 7 4 36 -9 36 -5 0 -12 -5 -16
-11z"/>
<path d="M2072 2238 c-7 -7 -12 -17 -12 -24 0 -19 27 -24 41 -8 17 21 -10 51
-29 32z"/>
<path d="M2490 2225 c0 -8 7 -15 15 -15 8 0 15 7 15 15 0 8 -7 15 -15 15 -8 0
-15 -7 -15 -15z"/>
<path d="M1770 2201 c0 -12 6 -21 16 -21 9 0 14 7 12 17 -5 25 -28 28 -28 4z"/>
<path d="M2125 2181 c-3 -5 -1 -12 5 -16 5 -3 10 1 10 9 0 18 -6 21 -15 7z"/>
<path d="M2330 2169 c0 -24 23 -21 28 4 2 10 -3 17 -12 17 -10 0 -16 -9 -16
-21z"/>
<path d="M1665 2109 c-10 -16 3 -56 20 -63 37 -14 62 33 33 62 -15 15 -45 16
-53 1z"/>
<path d="M2052 2108 c5 -15 28 -18 29 -3 0 6 -7 12 -17 13 -10 3 -15 -1 -12
-10z"/>
<path d="M1210 2101 c0 -6 5 -13 10 -16 6 -3 10 1 10 9 0 9 -4 16 -10 16 -5 0
-10 -4 -10 -9z"/>
<path d="M2880 2100 c0 -5 5 -10 10 -10 6 0 10 5 10 10 0 6 -4 10 -10 10 -5 0
-10 -4 -10 -10z"/>
<path d="M1960 2054 c0 -9 5 -14 12 -12 18 6 21 28 4 28 -9 0 -16 -7 -16 -16z"/>
<path d="M2150 2050 c-12 -7 -12 -12 -3 -21 15 -15 26 -7 21 15 -2 11 -7 13
-18 6z"/>
<path d="M2627 2022 c-25 -5 -17 -36 11 -40 16 -3 22 2 22 17 0 23 -8 29 -33
23z"/>
<path d="M2725 2020 c3 -5 8 -10 11 -10 2 0 4 5 4 10 0 6 -5 10 -11 10 -5 0
-7 -4 -4 -10z"/>
<path d="M2810 2009 c0 -5 5 -7 10 -4 6 3 10 8 10 11 0 2 -4 4 -10 4 -5 0 -10
-5 -10 -11z"/>
<path d="M2393 1968 c-6 -7 -13 -32 -16 -55 -6 -53 14 -85 51 -81 31 4 40 29
22 63 -7 13 -10 29 -8 37 13 33 -28 63 -49 36z"/>
<path d="M2540 1966 c0 -9 7 -16 16 -16 17 0 14 22 -4 28 -7 2 -12 -3 -12 -12z"/>
<path d="M2595 1931 c-3 -5 -1 -12 5 -16 12 -7 30 2 30 16 0 12 -27 12 -35 0z"/>
<path d="M2710 1875 c0 -8 7 -15 15 -15 8 0 15 7 15 15 0 8 -7 15 -15 15 -8 0
-15 -7 -15 -15z"/>
<path d="M1460 1860 c0 -21 8 -24 34 -14 25 10 19 34 -9 34 -18 0 -25 -5 -25
-20z"/>
<path d="M1100 1840 c0 -5 5 -10 10 -10 6 0 10 5 10 10 0 6 -4 10 -10 10 -5 0
-10 -4 -10 -10z"/>
<path d="M2670 1785 c0 -8 7 -15 15 -15 8 0 15 7 15 15 0 8 -7 15 -15 15 -8 0
-15 -7 -15 -15z"/>
<path d="M1290 1751 c0 -12 6 -21 16 -21 9 0 14 7 12 17 -5 25 -28 28 -28 4z"/>
<path d="M2507 1743 c-15 -14 -7 -43 12 -43 20 0 35 25 25 41 -6 11 -28 12
-37 2z"/>
<path d="M1166 1647 c-27 -20 -18 -71 13 -75 13 -2 28 2 32 10 26 40 -10 91
-45 65z"/>
<path d="M2915 1601 c-6 -11 9 -23 19 -14 9 9 7 23 -3 23 -6 0 -12 -4 -16 -9z"/>
<path d="M1380 1539 c0 -24 23 -21 28 4 2 10 -3 17 -12 17 -10 0 -16 -9 -16
-21z"/>
<path d="M2436 1484 c-4 -10 -2 -22 3 -27 14 -14 43 0 39 20 -4 24 -34 28 -42
7z"/>
<path d="M1270 1471 c-5 -11 -10 -29 -10 -40 0 -25 47 -63 74 -59 12 1 32 -4
45 -11 20 -11 26 -11 39 3 13 12 13 20 4 41 -6 14 -16 25 -21 25 -5 0 -23 14
-39 30 -35 35 -76 40 -92 11z"/>
<path d="M2366 1481 c-3 -5 1 -14 8 -20 16 -13 32 2 21 19 -8 12 -22 13 -29 1z"/>
<path d="M2780 1460 c0 -5 5 -10 10 -10 6 0 10 5 10 10 0 6 -4 10 -10 10 -5 0
-10 -4 -10 -10z"/>
<path d="M1040 1430 c0 -5 5 -10 10 -10 6 0 10 5 10 10 0 6 -4 10 -10 10 -5 0
-10 -4 -10 -10z"/>
<path d="M2503 1428 c2 -7 10 -13 17 -13 7 0 15 6 18 13 2 7 -5 12 -18 12 -13
0 -20 -5 -17 -12z"/>
<path d="M2407 1405 c-8 -18 11 -31 25 -17 11 11 3 32 -12 32 -4 0 -10 -7 -13
-15z"/>
<path d="M2950 1384 c0 -8 5 -12 10 -9 6 3 10 10 10 16 0 5 -4 9 -10 9 -5 0
-10 -7 -10 -16z"/>
<path d="M2820 1380 c0 -5 5 -10 10 -10 6 0 10 5 10 10 0 6 -4 10 -10 10 -5 0
-10 -4 -10 -10z"/>
<path d="M2494 1369 c-8 -14 11 -33 25 -25 6 4 11 11 11 16 0 13 -29 20 -36 9z"/>
<path d="M2685 1351 c-3 -5 -1 -12 5 -16 5 -3 10 1 10 9 0 18 -6 21 -15 7z"/>
<path d="M2635 1311 c-3 -5 -1 -12 5 -16 5 -3 10 1 10 9 0 18 -6 21 -15 7z"/>
<path d="M1255 1301 c-3 -5 -1 -12 5 -16 5 -3 10 1 10 9 0 18 -6 21 -15 7z"/>
<path d="M1190 1250 c0 -5 5 -10 10 -10 6 0 10 5 10 10 0 6 -4 10 -10 10 -5 0
-10 -4 -10 -10z"/>
<path d="M1386 1243 c-12 -12 -6 -33 9 -33 8 0 15 6 15 14 0 17 -14 28 -24 19z"/>
<path d="M2270 1214 c0 -17 22 -14 28 4 2 7 -3 12 -12 12 -9 0 -16 -7 -16 -16z"/>
<path d="M1290 1180 c0 -5 5 -10 10 -10 6 0 10 5 10 10 0 6 -4 10 -10 10 -5 0
-10 -4 -10 -10z"/>
<path d="M1580 1159 c0 -24 23 -21 28 4 2 10 -3 17 -12 17 -10 0 -16 -9 -16
-21z"/>
<path d="M1742 1154 c4 -21 22 -23 26 -1 2 10 -3 17 -13 17 -10 0 -15 -6 -13
-16z"/>
<path d="M1200 1140 c0 -11 7 -20 15 -20 8 0 15 9 15 20 0 11 -7 20 -15 20 -8
0 -15 -9 -15 -20z"/>
<path d="M2011 1146 c-25 -30 31 -80 58 -53 24 24 5 67 -30 67 -9 0 -22 -6
-28 -14z"/>
<path d="M2423 1148 c2 -7 10 -13 17 -13 7 0 15 6 18 13 2 7 -5 12 -18 12 -13
0 -20 -5 -17 -12z"/>
<path d="M2215 1091 c-3 -5 -1 -12 5 -16 12 -7 30 2 30 16 0 12 -27 12 -35 0z"/>
<path d="M2555 1090 c-3 -5 -1 -10 4 -10 6 0 11 5 11 10 0 6 -2 10 -4 10 -3 0
-8 -4 -11 -10z"/>
<path d="M2110 1070 c0 -5 5 -10 10 -10 6 0 10 5 10 10 0 6 -4 10 -10 10 -5 0
-10 -4 -10 -10z"/>
<path d="M2015 1060 c-3 -5 -1 -10 4 -10 6 0 11 5 11 10 0 6 -2 10 -4 10 -3 0
-8 -4 -11 -10z"/>
<path d="M1456 1033 c-14 -15 -5 -43 14 -43 13 0 20 7 20 19 0 19 -23 35 -34
24z"/>
<path d="M2350 990 c0 -17 5 -21 28 -18 16 2 27 9 27 18 0 9 -11 16 -27 18
-23 3 -28 -1 -28 -18z"/>
<path d="M2055 990 c-11 -17 5 -32 21 -19 7 6 11 15 8 20 -7 12 -21 11 -29 -1z"/>
<path d="M2542 968 c-20 -20 -15 -58 8 -58 29 0 44 34 24 54 -19 19 -17 19
-32 4z"/>
<path d="M1565 950 c-10 -17 12 -37 25 -24 8 8 6 15 -4 23 -10 9 -16 9 -21 1z"/>
<path d="M1702 938 c2 -13 10 -23 18 -23 8 0 16 10 18 23 3 17 -2 22 -18 22
-16 0 -21 -5 -18 -22z"/>
<path d="M1504 926 c-8 -22 3 -33 18 -18 9 9 9 15 0 24 -9 9 -13 7 -18 -6z"/>
<path d="M1860 881 c-13 -25 -13 -24 9 -49 26 -31 41 -27 41 11 0 51 -30 74
-50 38z"/>
<path d="M1447 844 c-15 -15 -7 -45 11 -42 9 2 17 12 17 22 0 20 -16 31 -28
20z"/>
<path d="M1515 829 c-10 -15 1 -23 20 -15 9 3 13 10 10 16 -8 13 -22 13 -30
-1z"/>
<path d="M1700 815 c0 -8 7 -15 15 -15 8 0 15 7 15 15 0 8 -7 15 -15 15 -8 0
-15 -7 -15 -15z"/>
<path d="M1475 741 c-3 -5 -1 -12 5 -16 5 -3 10 1 10 9 0 18 -6 21 -15 7z"/>
<path d="M1741 724 c0 -11 3 -14 6 -6 3 7 2 16 -1 19 -3 4 -6 -2 -5 -13z"/>
</g>
</svg>
